<svg width="44.000000" height="44.000000" viewBox="0 0 44 44" fill="none" xmlns="http://www.w3.org/2000/svg" xmlns:xlink="http://www.w3.org/1999/xlink">
	<desc>
			Created with Pixso.
	</desc>
	<defs>
		<filter id="filter_11_9962_dd" x="0.000000" y="0.000000" width="44.000000" height="44.000000" filterUnits="userSpaceOnUse" color-interpolation-filters="sRGB">
			<feFlood flood-opacity="0" result="BackgroundImageFix"/>
			<feGaussianBlur in="BackgroundImage" stdDeviation="5.12151"/>
			<feComposite in2="SourceAlpha" operator="in" result="effect_backgroundBlur_1"/>
			<feBlend mode="normal" in="SourceGraphic" in2="effect_backgroundBlur_1" result="shape"/>
		</filter>
	</defs>
	<g filter="url(#filter_11_9962_dd)">
		<circle id="Ellipse 5" r="22.000000" transform="matrix(-1 1 0 0 22 22)" fill="#FAF4EA" fill-opacity="0.700000"/>
	</g>
	<circle id="Ellipse 5" r="21.615887" transform="matrix(-1 1 0 0 22 22)" stroke="#31261A" stroke-opacity="1.000000" stroke-width="0.768227"/>
	<path id="Arrow 1" d="M29.5858 22L24.636 26.9498C24.2401 27.3457 24.2401 27.968 24.636 28.364C25.032 28.7599 25.6543 28.7599 26.0503 28.364L31.7072 22.7071C32.103 22.3111 32.103 21.6889 31.7072 21.2929L26.0503 15.636C25.6543 15.2401 25.032 15.2401 24.636 15.636C24.2401 16.032 24.2401 16.6543 24.636 17.0502L29.5858 22Z" fill="#FAF4EA" fill-opacity="0.700000" fill-rule="nonzero"/>
	<path id="Arrow 1" d="M31 21L14.238 21L14.238 23L31 23L31 21ZM29.5858 22L24.636 26.9498C24.2401 27.3457 24.2401 27.968 24.636 28.364C25.032 28.7599 25.6543 28.7599 26.0503 28.364L31.7072 22.7071C32.103 22.3111 32.103 21.6889 31.7072 21.2929L26.0503 15.636C25.6543 15.2401 25.032 15.2401 24.636 15.636C24.2401 16.032 24.2401 16.6543 24.636 17.0502L29.5858 22Z" fill="#31261A" fill-opacity="1.000000" fill-rule="evenodd"/>
</svg>
